<svg width="16" height="17" viewBox="0 0 16 17" fill="none" xmlns="http://www.w3.org/2000/svg">
<rect y="0.5" width="16" height="16" rx="2" fill="#D2D5DA"/>
<path d="M6.99147 11.6529C6.81477 11.6531 6.64524 11.5831 6.52014 11.4583L3.69214 8.6296C3.62842 8.56815 3.57758 8.49462 3.54259 8.41331C3.50759 8.332 3.48914 8.24454 3.48831 8.15602C3.48748 8.0675 3.50429 7.9797 3.53775 7.89775C3.57121 7.81579 3.62066 7.74133 3.68321 7.67869C3.74576 7.61605 3.82016 7.56649 3.90207 7.53292C3.98397 7.49934 4.07175 7.48241 4.16026 7.48311C4.24878 7.48382 4.33628 7.50215 4.41764 7.53703C4.499 7.57191 4.5726 7.62264 4.63414 7.68627L6.99081 10.0429L11.2341 5.80094C11.3591 5.67584 11.5287 5.60553 11.7056 5.60547C11.8824 5.60541 12.052 5.6756 12.1771 5.8006C12.3022 5.92561 12.3725 6.09519 12.3726 6.27203C12.3727 6.44888 12.3025 6.61851 12.1775 6.7436L7.46281 11.4583C7.3377 11.5831 7.16817 11.6531 6.99147 11.6529Z" fill="white"/>
</svg>
