<svg width="24" height="24" viewBox="0 0 24 24" fill="none" xmlns="http://www.w3.org/2000/svg">
<path d="M20 12C20 10.4178 19.5308 8.87103 18.6518 7.55544C17.7727 6.23985 16.5233 5.21447 15.0615 4.60897C13.5997 4.00347 11.9911 3.84504 10.4393 4.15372C8.88743 4.4624 7.46197 5.22433 6.34315 6.34315C5.22433 7.46197 4.4624 8.88743 4.15372 10.4393C3.84504 11.9911 4.00347 13.5997 4.60897 15.0615C5.21447 16.5233 6.23985 17.7727 7.55544 18.6518C8.87103 19.5308 10.4178 20 12 20C14.1217 20 16.1566 19.1571 17.6569 17.6569C19.1571 16.1566 20 14.1217 20 12ZM15.14 14.1867C15.2642 14.3116 15.3339 14.4805 15.3339 14.6567C15.3339 14.8328 15.2642 15.0018 15.14 15.1267C15.078 15.1892 15.0043 15.2387 14.9231 15.2726C14.8418 15.3064 14.7547 15.3239 14.6667 15.3239C14.5787 15.3239 14.4915 15.3064 14.4103 15.2726C14.329 15.2387 14.2553 15.1892 14.1933 15.1267L12.12 13.0533C12.0881 13.0243 12.0465 13.0082 12.0033 13.0082C11.9602 13.0082 11.9186 13.0243 11.8867 13.0533L9.81334 15.1267C9.6858 15.2359 9.52175 15.293 9.35397 15.2865C9.18618 15.28 9.02702 15.2104 8.90829 15.0917C8.78956 14.973 8.72001 14.8138 8.71353 14.646C8.70705 14.4783 8.76412 14.3142 8.87334 14.1867L10.9467 12.1133C10.9757 12.0814 10.9918 12.0398 10.9918 11.9967C10.9918 11.9535 10.9757 11.9119 10.9467 11.88L8.87334 9.80667C8.81085 9.74469 8.76125 9.67096 8.72741 9.58972C8.69356 9.50848 8.67614 9.42134 8.67614 9.33334C8.67614 9.24533 8.69356 9.15819 8.72741 9.07695C8.76125 8.99571 8.81085 8.92198 8.87334 8.86C8.99824 8.73584 9.16721 8.66614 9.34334 8.66614C9.51946 8.66614 9.68843 8.73584 9.81334 8.86L11.8867 10.9333C11.9016 10.9493 11.9197 10.962 11.9398 10.9707C11.9598 10.9794 11.9815 10.9838 12.0033 10.9838C12.0252 10.9838 12.0468 10.9794 12.0669 10.9707C12.087 10.962 12.105 10.9493 12.12 10.9333L14.1933 8.86C14.2555 8.79784 14.3293 8.74854 14.4105 8.7149C14.4917 8.68126 14.5788 8.66394 14.6667 8.66394C14.7546 8.66394 14.8416 8.68126 14.9228 8.7149C15.004 8.74854 15.0778 8.79784 15.14 8.86C15.2022 8.92216 15.2515 8.99595 15.2851 9.07717C15.3187 9.15838 15.3361 9.24543 15.3361 9.33334C15.3361 9.42124 15.3187 9.50829 15.2851 9.5895C15.2515 9.67072 15.2022 9.74451 15.14 9.80667L13.0667 11.88C13.0507 11.895 13.038 11.913 13.0293 11.9331C13.0206 11.9532 13.0162 11.9748 13.0162 11.9967C13.0162 12.0185 13.0206 12.0402 13.0293 12.0602C13.038 12.0803 13.0507 12.0984 13.0667 12.1133L15.14 14.1867Z" fill="#D2D5DA"/>
</svg>
